<svg width="13" height="10" viewBox="0 0 13 10" fill="none" xmlns="http://www.w3.org/2000/svg">
<path d="M6.07052 2.78455C6.11228 2.74279 6.17493 2.72191 6.23757 2.72191C6.27934 2.72191 6.34198 2.74279 6.38375 2.78455L10.2469 5.93776V9.36243C10.2469 9.55037 10.0799 9.69655 9.91283 9.69655H7.55315C7.38609 9.69655 7.21904 9.55037 7.21904 9.36243V7.35775C7.21904 7.19069 7.07286 7.02363 6.88492 7.02363H5.54846C5.38141 7.02363 5.21435 7.19069 5.21435 7.35775V9.36243C5.21435 9.55037 5.06817 9.69655 4.90112 9.69655H2.56231C2.37437 9.69655 2.2282 9.55037 2.2282 9.36243V5.95864L6.07052 2.78455ZM12.1472 4.93542C12.2099 4.97718 12.2516 5.06071 12.2516 5.12336C12.2516 5.186 12.2308 5.24865 12.189 5.29041L11.6461 5.93776C11.6043 6.00041 11.5416 6.02129 11.4581 6.02129C11.3955 6.02129 11.3328 6.00041 11.2911 5.95864L6.38375 1.92838C6.34198 1.88662 6.27934 1.86574 6.23757 1.86574C6.17493 1.86574 6.11228 1.88662 6.07052 1.92838L1.16321 5.95864C1.12144 6.00041 1.0588 6.02129 0.996151 6.02129C0.912622 6.02129 0.849976 6.00041 0.808211 5.93776L0.265275 5.29041C0.244393 5.24865 0.202629 5.186 0.202629 5.12336C0.202629 5.06071 0.244393 4.97718 0.307039 4.93542L5.59023 0.571044C5.75728 0.445751 5.98699 0.362223 6.23757 0.362223C6.46728 0.362223 6.69698 0.445751 6.86404 0.571044L8.74343 2.11632V0.612809C8.74343 0.466633 8.84784 0.362223 8.99402 0.362223H10.1634C10.2887 0.362223 10.414 0.466633 10.414 0.612809V3.49455L12.1472 4.93542Z" fill="white"/>
</svg>
