<svg width="10" height="10" viewBox="0 0 10 10" fill="none" xmlns="http://www.w3.org/2000/svg">
<path d="M4.95544 2.29621C6.27101 2.29621 7.35689 3.38208 7.35689 4.69766C7.35689 6.03411 6.27101 7.0991 4.95544 7.0991C3.61898 7.0991 2.55399 6.03411 2.55399 4.69766C2.55399 3.38208 3.61898 2.29621 4.95544 2.29621ZM4.95544 6.26382C5.81161 6.26382 6.50072 5.57471 6.50072 4.69766C6.50072 3.84149 5.81161 3.15238 4.95544 3.15238C4.07839 3.15238 3.38927 3.84149 3.38927 4.69766C3.38927 5.57471 4.09927 6.26382 4.95544 6.26382ZM8.00423 2.21268C8.00423 2.52591 7.75365 2.7765 7.44041 2.7765C7.12718 2.7765 6.8766 2.52591 6.8766 2.21268C6.8766 1.89945 7.12718 1.64886 7.44041 1.64886C7.75365 1.64886 8.00423 1.89945 8.00423 2.21268ZM9.59128 2.7765C9.63304 3.54914 9.63304 5.86706 9.59128 6.6397C9.54951 7.39145 9.38246 8.0388 8.83952 8.60262C8.29658 9.14556 7.62835 9.31261 6.8766 9.35438C6.10396 9.39614 3.78604 9.39614 3.0134 9.35438C2.26164 9.31261 1.61429 9.14556 1.05047 8.60262C0.507536 8.0388 0.340479 7.39145 0.298714 6.6397C0.25695 5.86706 0.25695 3.54914 0.298714 2.7765C0.340479 2.02474 0.507536 1.35651 1.05047 0.813574C1.61429 0.270637 2.26164 0.10358 3.0134 0.0618157C3.78604 0.0200514 6.10396 0.0200514 6.8766 0.0618157C7.62835 0.10358 8.29658 0.270637 8.83952 0.813574C9.38246 1.35651 9.54951 2.02474 9.59128 2.7765ZM8.58893 7.4541C8.83952 6.84852 8.77687 5.38677 8.77687 4.69766C8.77687 4.02943 8.83952 2.56768 8.58893 1.94121C8.42188 1.54445 8.10864 1.21033 7.71188 1.06416C7.08542 0.813574 5.62367 0.87622 4.95544 0.87622C4.26633 0.87622 2.80457 0.813574 2.19899 1.06416C1.78135 1.23122 1.46812 1.54445 1.30106 1.94121C1.05047 2.56768 1.11312 4.02943 1.11312 4.69766C1.11312 5.38677 1.05047 6.84852 1.30106 7.4541C1.46812 7.87174 1.78135 8.18498 2.19899 8.35203C2.80457 8.60262 4.26633 8.53997 4.95544 8.53997C5.62367 8.53997 7.08542 8.60262 7.71188 8.35203C8.10864 8.18498 8.44276 7.87174 8.58893 7.4541Z" fill="white"/>
</svg>
