<svg width="10" height="11" viewBox="0 0 10 11" fill="none" xmlns="http://www.w3.org/2000/svg">
<path d="M8.21305 2.05208C9.0901 2.92913 9.63304 4.07765 9.63304 5.33058C9.63304 7.87821 7.50306 9.96642 4.93455 9.96642C4.16191 9.96642 3.41016 9.7576 2.72105 9.4026L0.277832 10.0291L0.925179 7.62762C0.528418 6.93851 0.298714 6.14499 0.298714 5.3097C0.298714 2.76208 2.38693 0.67386 4.93455 0.67386C6.18748 0.67386 7.35689 1.17503 8.21305 2.05208ZM4.93455 9.1729C7.06454 9.1729 8.83952 7.43968 8.83952 5.33058C8.83952 4.28647 8.40099 3.32589 7.67012 2.59502C6.93924 1.86414 5.97866 1.46738 4.95544 1.46738C2.82546 1.46738 1.09224 3.2006 1.09224 5.3097C1.09224 6.04058 1.30106 6.75057 1.67694 7.37703L1.78135 7.52321L1.38459 8.9432L2.84634 8.54644L2.97163 8.62996C3.57721 8.98496 4.24544 9.1729 4.93455 9.1729ZM7.06454 6.29116C7.16895 6.35381 7.25247 6.37469 7.27336 6.43734C7.31512 6.4791 7.31512 6.70881 7.21071 6.98027C7.1063 7.25174 6.64689 7.50233 6.43807 7.52321C6.06219 7.58586 5.76984 7.56497 5.03897 7.23086C3.86956 6.72969 3.11781 5.56029 3.05516 5.49764C2.99251 5.41411 2.59575 4.87117 2.59575 4.28647C2.59575 3.72266 2.8881 3.45119 2.99251 3.32589C3.09692 3.2006 3.22222 3.17972 3.30575 3.17972C3.36839 3.17972 3.45192 3.17972 3.51457 3.17972C3.5981 3.17972 3.68162 3.15884 3.78604 3.38854C3.86956 3.61824 4.12015 4.18206 4.14103 4.24471C4.16191 4.30736 4.1828 4.37 4.14103 4.45353C3.93221 4.89206 3.68162 4.87117 3.80692 5.08C4.26633 5.85264 4.70485 6.1241 5.39396 6.45822C5.49837 6.52087 5.56102 6.49998 5.64455 6.43734C5.70719 6.35381 5.9369 6.08234 5.99954 5.97793C6.08307 5.85264 6.1666 5.87352 6.27101 5.91528C6.37542 5.95705 6.93924 6.22852 7.06454 6.29116Z" fill="white"/>
</svg>
